<?xml version="1.0" encoding="utf-8"?>
<!-- Generator: Adobe Illustrator 25.0.1, SVG Export Plug-In . SVG Version: 6.00 Build 0)  -->
<svg version="1.1" id="Слой_1" xmlns="http://www.w3.org/2000/svg" xmlns:xlink="http://www.w3.org/1999/xlink" x="0px" y="0px"
	 viewBox="0 0 515 512" style="enable-background:new 0 0 515 512;" xml:space="preserve">
<style type="text/css">
	.st0{fill:#FFFFFF;}
</style>
<g>
	<g>
		<path class="st0" d="M348.27,300.72l-71.39-53.54V138.12c0-10.97-8.86-19.83-19.83-19.83c-10.97,0-19.83,8.86-19.83,19.83V257.1
			c0,6.25,2.93,12.14,7.93,15.86l79.32,59.49c3.57,2.68,7.73,3.97,11.88,3.97c6.05,0,12-2.72,15.88-7.95
			C358.82,319.72,357.04,307.29,348.27,300.72z"/>
	</g>
</g>
<g>
	<g>
		<path class="st0" d="M257.06-0.49c-141.17,0-256,114.83-256,256s114.83,256,256,256s256-114.83,256-256S398.23-0.49,257.06-0.49z
			 M257.06,471.85c-119.27,0-216.34-97.07-216.34-216.34S137.78,39.17,257.06,39.17c119.29,0,216.34,97.07,216.34,216.34
			S376.33,471.85,257.06,471.85z"/>
	</g>
</g>
</svg>
