<?xml version="1.0" encoding="utf-8"?>
<!-- Generator: Adobe Illustrator 25.0.1, SVG Export Plug-In . SVG Version: 6.00 Build 0)  -->
<svg version="1.1" id="Слой_1" xmlns="http://www.w3.org/2000/svg" xmlns:xlink="http://www.w3.org/1999/xlink" x="0px" y="0px"
	 viewBox="0 0 550 283" style="enable-background:new 0 0 550 283;" xml:space="preserve">
<style type="text/css">
	.st0{fill:#FFFFFF;}
</style>
<path class="st0" d="M470.69,269.41c-6,8.55-15.36,13.58-25.3,13.58H12.82c-7.12,0-12.89-5.99-12.89-13.38V14.18
	C-0.07,6.79,5.7,0.8,12.82,0.8h431.99c10.1,0,19.59,5.19,25.57,13.98l73.4,107.9c8.22,12.08,8.2,28.52-0.04,40.58
	C523.94,192.22,488.04,244.66,470.69,269.41z"/>
<g>
	<path d="M131.45,171.98H85.34v-18.21h37.49c2.46,0,4.46-2,4.46-4.46v-14.54c0-2.46-2-4.46-4.46-4.46H85.34v-18.49h44.65
		c2.46,0,4.46-2,4.46-4.46V88.63c0-2.46-2-4.46-4.46-4.46h-71.9c-2.46,0-4.46,2-4.46,4.46v106.53c0,2.46,2,4.46,4.46,4.46h73.36
		c2.46,0,4.46-2,4.46-4.46v-18.72C135.91,173.97,133.92,171.98,131.45,171.98z"/>
	<path d="M257.86,84.17h-23.29c-1.6,0-3.07,0.85-3.87,2.23l-19.69,34.19L191.32,86.4c-0.8-1.38-2.27-2.23-3.87-2.23H164
		c-3.54,0-5.68,3.95-3.73,6.91l33.99,51.63l-32.72,50.01c-0.9,1.37-0.97,3.12-0.19,4.56c0.78,1.44,2.28,2.34,3.92,2.34h23.46
		c1.61,0,3.09-0.87,3.88-2.27l18.4-32.53l18.4,32.53c0.79,1.4,2.28,2.27,3.88,2.27h23.3c1.64,0,3.14-0.9,3.92-2.34
		c0.78-1.44,0.71-3.19-0.19-4.56l-32.72-50.01l33.99-51.63c0.9-1.37,0.98-3.12,0.2-4.57C261.01,85.07,259.5,84.17,257.86,84.17z"/>
	<path d="M313.78,84.17h-22.79c-2.46,0-4.46,2-4.46,4.46v106.53c0,2.46,2,4.46,4.46,4.46h22.79c2.46,0,4.46-2,4.46-4.46V88.63
		C318.24,86.16,316.24,84.17,313.78,84.17z"/>
	<path d="M433.57,84.17h-89.3c-2.46,0-4.46,2-4.46,4.46v18.72c0,2.46,2,4.46,4.46,4.46h28.87v83.35c0,2.46,2,4.46,4.46,4.46h22.79
		c2.46,0,4.46-2,4.46-4.46v-83.35h28.71c2.46,0,4.46-2,4.46-4.46V88.63C438.03,86.16,436.04,84.17,433.57,84.17z"/>
</g>
</svg>
