<?xml version="1.0" encoding="utf-8"?>
<!-- Generator: Adobe Illustrator 25.0.1, SVG Export Plug-In . SVG Version: 6.00 Build 0)  -->
<svg version="1.1" id="Слой_1" xmlns="http://www.w3.org/2000/svg" xmlns:xlink="http://www.w3.org/1999/xlink" x="0px" y="0px"
	 viewBox="0 0 515 512" style="enable-background:new 0 0 515 512;" xml:space="preserve">
<style type="text/css">
	.st0{fill:#FFFFFF;}
</style>
<circle class="st0" cx="257.06" cy="255.51" r="256"/>
<g>
	<path d="M418.84,225.08l-142.76-0.01c-6.3,0-11.41,5.11-11.41,11.41v45.61c0,6.3,5.11,11.41,11.41,11.41h80.39
		c-8.8,22.85-25.23,41.98-46.2,54.14l34.28,59.34c54.99-31.8,87.5-87.6,87.5-150.07c0-8.89-0.66-15.25-1.97-22.41
		C429.09,229.07,424.37,225.08,418.84,225.08z"/>
	<path d="M257.06,362.03c-39.34,0-73.69-21.5-92.14-53.31l-59.34,34.2c30.2,52.34,86.77,87.58,151.48,87.58
		c31.74,0,61.7-8.55,87.5-23.44v-0.08l-34.28-59.34C294.6,356.74,276.45,362.03,257.06,362.03z"/>
	<path d="M150.54,255.51c0-19.39,5.29-37.54,14.38-53.22l-59.34-34.2c-14.98,25.72-23.52,55.59-23.52,87.42s8.55,61.7,23.52,87.42
		l59.34-34.2C155.83,293.05,150.54,274.9,150.54,255.51z"/>
	<path d="M257.06,148.99c25.66,0,49.22,9.12,67.63,24.28c4.54,3.74,11.14,3.47,15.3-0.69l32.31-32.31
		c4.72-4.72,4.38-12.44-0.66-16.82c-30.84-26.76-70.97-42.94-114.59-42.94c-64.71,0-121.28,35.24-151.48,87.58l59.34,34.2
		C183.37,170.49,217.71,148.99,257.06,148.99z"/>
</g>
</svg>
