<?xml version="1.0" encoding="utf-8"?>
<!-- Generator: Adobe Illustrator 25.0.1, SVG Export Plug-In . SVG Version: 6.00 Build 0)  -->
<svg version="1.1" id="Layer_1" xmlns="http://www.w3.org/2000/svg" xmlns:xlink="http://www.w3.org/1999/xlink" x="0px" y="0px"
	 viewBox="0 0 512 512" style="enable-background:new 0 0 512 512;" xml:space="preserve">
<style type="text/css">
	.st0{fill:#FFFFFF;}
</style>
<circle cx="256" cy="256" r="256"/>
<g>
	<path class="st0" d="M417.8,225.6l-142.8,0c-6.3,0-11.4,5.1-11.4,11.4v45.6c0,6.3,5.1,11.4,11.4,11.4h80.4
		c-8.8,22.8-25.2,42-46.2,54.1l34.3,59.3c55-31.8,87.5-87.6,87.5-150.1c0-8.9-0.7-15.3-2-22.4C428,229.6,423.3,225.6,417.8,225.6z"
		/>
	<path class="st0" d="M256,362.5c-39.3,0-73.7-21.5-92.1-53.3l-59.3,34.2C134.7,395.8,191.3,431,256,431c31.7,0,61.7-8.5,87.5-23.4
		v-0.1l-34.3-59.3C293.5,357.2,275.4,362.5,256,362.5z"/>
	<path class="st0" d="M149.5,256c0-19.4,5.3-37.5,14.4-53.2l-59.3-34.2C89.5,194.3,81,224.2,81,256s8.5,61.7,23.5,87.4l59.3-34.2
		C154.8,293.5,149.5,275.4,149.5,256z"/>
	<path class="st0" d="M256,149.5c25.7,0,49.2,9.1,67.6,24.3c4.5,3.7,11.1,3.5,15.3-0.7l32.3-32.3c4.7-4.7,4.4-12.4-0.7-16.8
		C339.7,97.2,299.6,81,256,81c-64.7,0-121.3,35.2-151.5,87.6l59.3,34.2C182.3,171,216.7,149.5,256,149.5z"/>
</g>
</svg>
