<?xml version="1.0" encoding="utf-8"?>
<!-- Generator: Adobe Illustrator 25.0.1, SVG Export Plug-In . SVG Version: 6.00 Build 0)  -->
<svg version="1.1" id="Bold" xmlns="http://www.w3.org/2000/svg" xmlns:xlink="http://www.w3.org/1999/xlink" x="0px" y="0px"
	 viewBox="0 0 512 512" style="enable-background:new 0 0 512 512;" xml:space="preserve">
<style type="text/css">
	.st0{fill:#FFFFFF;}
</style>
<circle cx="256.5" cy="255" r="256"/>
<path class="st0" d="M342.1,106.5c-48.8,0-88.7,39.3-89.1,87.8l-55.5,79.1c-15.5-1.4-28.8,1.8-40.6,9l-76-30.6v83.5l44.9,18
	c6.5,29.7,33.2,52.1,64.9,52.1c34.4,0,62.9-26.3,66-59.8l85.4-62.1c49,0,88.8-39.5,88.8-88.6l0,0C431,146.2,391.1,106.5,342.1,106.5
	L342.1,106.5z M147.6,362c8,3,16,6.4,24,9.5c19.9,8.2,42.6-1.6,50.5-21.4c8.1-19.8-1.7-42.2-21.6-50.2l-20.3-8.2
	c30.2-6.7,59.4,16,59.4,47.5C239.6,366.2,171.4,406.4,147.6,362z M342.2,254.3c-33,0-59.8-26.5-59.8-59.3
	c0-32.7,26.7-59.3,59.8-59.3c32.7,0,59.5,26.6,59.5,59.3C401.7,228,374.9,254.4,342.2,254.3z"/>
<path class="st0" d="M342.3,147.4c-26.3,0-47.6,21.2-47.6,47.5s21.2,47.5,47.6,47.5c26.2,0,47.6-21.2,47.6-47.5
	S368.5,147.4,342.3,147.4L342.3,147.4z"/>
</svg>
