<?xml version="1.0" encoding="utf-8"?>
<!-- Generator: Adobe Illustrator 25.0.1, SVG Export Plug-In . SVG Version: 6.00 Build 0)  -->
<svg version="1.1" id="Слой_1" xmlns="http://www.w3.org/2000/svg" xmlns:xlink="http://www.w3.org/1999/xlink" x="0px" y="0px"
	 viewBox="0 0 515 512" style="enable-background:new 0 0 515 512;" xml:space="preserve">
<style type="text/css">
	.st0{fill:#FFFFFF;}
</style>
<circle class="st0" cx="257.06" cy="255.51" r="256"/>
<path d="M342.64,107.03c-48.84,0-88.68,39.32-89.06,87.79l-55.46,79.14c-15.47-1.4-28.82,1.79-40.61,8.95l-75.95-30.58v83.52
	l44.92,17.98c6.49,29.74,33.22,52.15,64.85,52.15c34.39,0,62.88-26.29,66.02-59.78l85.39-62.11c48.99,0,88.83-39.54,88.83-88.56
	l-0.01-0.01C431.54,146.73,391.7,107.03,342.64,107.03L342.64,107.03z M148.19,362.55c7.96,3.03,16.01,6.37,23.99,9.49
	c19.94,8.17,42.58-1.56,50.55-21.41c8.05-19.85-1.72-42.25-21.63-50.2l-20.31-8.17c30.25-6.71,59.37,15.95,59.38,47.47
	C240.15,366.75,171.95,406.94,148.19,362.55z M342.73,254.85c-32.97,0-59.76-26.47-59.76-59.31c0-32.7,26.72-59.31,59.76-59.31
	c32.74,0,59.53,26.61,59.53,59.31C402.26,228.47,375.46,254.94,342.73,254.85z"/>
<path d="M342.89,147.95c-26.32,0-47.64,21.25-47.64,47.47s21.25,47.47,47.64,47.47c26.16,0,47.64-21.18,47.64-47.47
	S369.05,147.95,342.89,147.95L342.89,147.95z"/>
</svg>
