<?xml version="1.0" encoding="utf-8"?>
<!-- Generator: Adobe Illustrator 25.0.1, SVG Export Plug-In . SVG Version: 6.00 Build 0)  -->
<svg version="1.1" id="Слой_1" xmlns="http://www.w3.org/2000/svg" xmlns:xlink="http://www.w3.org/1999/xlink" x="0px" y="0px"
	 viewBox="0 0 515 512" style="enable-background:new 0 0 515 512;" xml:space="preserve">
<style type="text/css">
	.st0{fill:#FFFFFF;}
</style>
<g>
	<path class="st0" d="M257.06-1.99c-142.21,0-257.5,115.29-257.5,257.5s115.29,257.5,257.5,257.5s257.5-115.29,257.5-257.5
		S399.27-1.99,257.06-1.99z M387.68,283.36c12,11.72,24.7,22.75,35.47,35.69c4.77,5.72,9.27,11.64,12.7,18.29
		c4.89,9.49,0.47,19.89-8.02,20.46l-52.75-0.01c-13.62,1.13-24.47-4.37-33.61-13.68c-7.3-7.42-14.07-15.35-21.1-23.03
		c-2.87-3.15-5.9-6.12-9.5-8.45c-7.19-4.68-13.44-3.25-17.56,4.27c-4.2,7.64-5.16,16.12-5.56,24.63
		c-0.57,12.44-4.33,15.69-16.81,16.27c-26.67,1.25-51.97-2.8-75.49-16.24c-20.75-11.86-36.81-28.6-50.8-47.55
		c-27.25-36.94-48.12-77.49-66.87-119.2c-4.22-9.39-1.13-14.42,9.23-14.61c17.22-0.33,34.44-0.29,51.65-0.02
		c7.01,0.11,11.64,4.12,14.34,10.73c9.3,22.89,20.71,44.67,35,64.87c3.81,5.38,7.7,10.74,13.23,14.54
		c6.11,4.19,10.77,2.81,13.65-4.01c1.84-4.34,2.64-8.97,3.04-13.62c1.37-15.92,1.53-31.83-0.84-47.68
		c-1.48-9.92-7.05-16.33-16.94-18.2c-5.04-0.95-4.3-2.82-1.85-5.7c4.25-4.97,8.23-8.05,16.2-8.05l59.6-0.01
		c9.39,1.84,11.5,6.06,12.78,15.52l0.05,66.24c-0.11,3.66,1.84,14.51,8.41,16.91c5.27,1.74,8.75-2.49,11.9-5.82
		c14.29-15.17,24.48-33.07,33.6-51.6c4.03-8.17,7.5-16.63,10.87-25.1c2.51-6.26,6.41-9.35,13.48-9.24l57.4,0.07
		c1.69,0,3.41,0.02,5.08,0.31c9.67,1.65,12.32,5.82,9.33,15.25c-4.71,14.83-13.86,27.18-22.81,39.56
		c-9.59,13.26-19.82,26.05-29.31,39.36C376.15,266.67,376.84,272.79,387.68,283.36z"/>
</g>
</svg>
