<?xml version="1.0" encoding="utf-8"?>
<!-- Generator: Adobe Illustrator 25.0.1, SVG Export Plug-In . SVG Version: 6.00 Build 0)  -->
<svg version="1.1" id="Слой_1" xmlns="http://www.w3.org/2000/svg" xmlns:xlink="http://www.w3.org/1999/xlink" x="0px" y="0px"
	 viewBox="0 0 550 550" style="enable-background:new 0 0 550 550;" xml:space="preserve">
<style type="text/css">
	.st0{fill:#FFFFFF;}
</style>
<g>
	<path class="st0" d="M275.44-0.11c-151.86,0-275,123.11-275,274.99s123.13,274.99,275,274.99c151.89,0,275-123.11,275-274.99
		S427.32-0.11,275.44-0.11z M275.44,82.11c50.25,0,90.97,40.73,90.97,90.96c0,50.24-40.72,90.96-90.97,90.96
		c-50.23,0-90.95-40.72-90.95-90.96C184.49,122.84,225.21,82.11,275.44,82.11z M275.38,477.97c-50.12,0-96.02-18.25-131.42-48.46
		c-8.62-7.36-13.6-18.14-13.6-29.46c0-50.94,41.23-91.71,92.18-91.71h105.84c50.96,0,92.03,40.77,92.03,91.71
		c0,11.33-4.95,22.09-13.59,29.45C371.42,459.71,325.51,477.97,275.38,477.97z"/>
</g>
</svg>
