<?xml version="1.0" encoding="utf-8"?>
<!-- Generator: Adobe Illustrator 25.0.1, SVG Export Plug-In . SVG Version: 6.00 Build 0)  -->
<svg version="1.1" id="Слой_1" xmlns="http://www.w3.org/2000/svg" xmlns:xlink="http://www.w3.org/1999/xlink" x="0px" y="0px"
	 viewBox="0 0 550 550" style="enable-background:new 0 0 550 550;" xml:space="preserve">
<style type="text/css">
	.st0{fill:#FFFFFF;}
</style>
<g>
	<g>
		<path class="st0" d="M133.35,139.67c-18.33-18.33-96.25-22.92-121.46-25.21c-2.29,0-4.58,0-6.88,2.29
			c-2.29,2.29-4.58,6.88-4.58,9.17v206.25c0,6.88,4.58,11.46,11.46,11.46h68.75c4.58,0,9.17-2.29,11.46-6.88
			c0-6.87,41.25-128.33,45.83-187.92C137.94,146.54,137.94,141.96,133.35,139.67z"/>
	</g>
</g>
<g>
	<g>
		<path class="st0" d="M378.56,194.67c-22.92-6.87-43.54-16.04-61.88-22.92c-41.25-18.33-59.58-9.17-96.25,27.5
			c-16.04,16.04-27.5,38.96-25.21,48.12c0,2.29,0,2.29,4.58,4.58c11.46,4.58,27.5,6.88,43.54-18.33c2.29-2.29,4.58-4.58,9.17-4.58
			c6.88,0,9.17-2.29,16.04-4.58c4.58-2.29,9.17-4.58,16.04-6.88c2.29,0,2.29,0,4.58,0c2.29,0,6.88,2.29,9.17,2.29
			c11.46,11.46,32.08,27.5,52.71,45.83c32.08,25.21,64.17,52.71,80.21,73.33h2.29C417.52,293.21,390.02,215.29,378.56,194.67z"/>
	</g>
</g>
<g>
	<g>
		<path class="st0" d="M538.98,137.38c-89.38,0-139.79,22.92-142.08,22.92c-2.29,2.29-4.58,4.58-6.88,6.88c0,2.29,0,6.87,2.29,9.17
			c13.75,22.92,59.58,148.96,66.46,181.04c2.29,4.58,6.88,9.17,11.46,9.17h68.75c6.88,0,11.46-4.58,11.46-11.46V148.83
			C550.44,141.96,545.85,137.38,538.98,137.38z"/>
	</g>
</g>
<g>
	<g>
		<path class="st0" d="M415.23,361.96c-9.17-20.62-48.12-50.42-82.5-77.92c-18.33-16.04-36.67-29.79-50.42-41.25
			c-2.29,2.29-6.88,2.29-6.88,4.58c-6.88,2.29-9.17,4.58-18.33,4.58c-18.33,22.92-41.25,32.08-66.46,22.92
			c-11.46-2.29-18.33-11.46-20.62-20.62c-4.58-22.92,16.04-55,32.08-71.04h-45.83c-9.17,45.83-25.21,105.42-36.67,137.5
			c9.17,9.17,18.33,20.63,25.21,25.21c43.54,36.67,93.96,73.33,103.12,80.21c6.87,4.58,20.62,9.17,27.5,9.17c2.29,0,4.58,0,6.88,0
			l-36.67-36.67c-4.58-4.58-4.58-11.46,0-16.04c4.58-4.58,11.46-4.58,16.04,0l45.83,45.83c4.58,4.58,9.17,2.29,13.75,2.29
			c6.88-2.29,9.17-6.88,11.46-13.75l-52.71-52.71c-4.58-4.58-4.58-11.46,0-16.04c4.58-4.58,11.46-4.58,16.04,0l57.29,57.29
			c2.29,2.29,11.46,2.29,18.33,0c2.29-2.29,6.88-4.58,9.17-9.17l-64.17-64.17c-4.58-4.58-4.58-11.46,0-16.04
			c4.58-4.58,11.46-4.58,16.04,0l66.46,66.46c4.58,2.29,9.17,0,13.75-2.29C415.23,378,419.81,371.12,415.23,361.96z"/>
	</g>
</g>
</svg>
