<?xml version="1.0" encoding="utf-8"?>
<!-- Generator: Adobe Illustrator 25.0.1, SVG Export Plug-In . SVG Version: 6.00 Build 0)  -->
<svg version="1.1" id="Слой_1" xmlns="http://www.w3.org/2000/svg" xmlns:xlink="http://www.w3.org/1999/xlink" x="0px" y="0px"
	 viewBox="0 0 1230 720" style="enable-background:new 0 0 1230 720;" xml:space="preserve">
<style type="text/css">
	.st0{fill:#F2F2F2;}
	.st1{fill:#FFFFFF;}
	.st2{fill:none;}
	.st3{font-family:'MyriadPro-Regular';}
	.st4{font-size:50.0597px;}
	.st5{font-size:49.9392px;}
	.st6{fill:none;stroke:#000000;stroke-width:4;stroke-miterlimit:10;}
	.st7{fill:none;stroke:#FFFFFF;stroke-width:4;stroke-miterlimit:10;}
</style>
<g>
	<rect x="615" y="0.67" class="st0" width="615" height="719.33"/>
</g>
<g>
	<rect width="615.57" height="719.33"/>
</g>
<g>
	<g>
		<g>
			<g>
				<g>
					<rect x="398.53" y="333.72" class="st1" width="44.92" height="46.7"/>
				</g>
				<rect x="398.53" y="339.22" class="st2" width="44.92" height="35.71"/>
				<text transform="matrix(0.9618 0 0 1 407.9409 374.7578)" class="st3 st4">B</text>
			</g>
			<g>
				<g>
					<rect x="447.3" y="333.78" class="st1" width="44.81" height="46.59"/>
				</g>
				<rect x="447.3" y="339.26" class="st2" width="44.81" height="35.62"/>
				<text transform="matrix(0.9618 0 0 1 455.0122 374.7148)" class="st3 st5">A</text>
			</g>
			<g>
				<g>
					<rect x="495.97" y="333.72" class="st1" width="44.92" height="46.7"/>
				</g>
				<rect x="495.97" y="339.22" class="st2" width="44.92" height="35.71"/>
				<text transform="matrix(0.9618 0 0 1 504.4692 374.7578)" class="st3 st4">C</text>
			</g>
			<g>
				<g>
					<rect x="544.69" y="333.72" class="st1" width="44.92" height="46.7"/>
				</g>
				<rect x="544.69" y="339.22" class="st2" width="44.92" height="35.71"/>
				<text transform="matrix(0.9618 0 0 1 554.1055 374.7578)" class="st3 st4">K</text>
			</g>
		</g>
		<g>
			<g>
				<g>
					<rect x="638.22" y="333.72" width="44.92" height="46.7"/>
				</g>
				<rect x="638.22" y="339.22" class="st2" width="44.92" height="35.71"/>
				<text transform="matrix(0.9618 0 0 1 648.8135 374.7578)" class="st1 st3 st4">S</text>
			</g>
			<g>
				<g>
					<rect x="686.94" y="333.72" width="44.92" height="46.7"/>
				</g>
				<rect x="686.94" y="339.22" class="st2" width="44.92" height="35.71"/>
				<text transform="matrix(0.9618 0 0 1 703.6504 374.7578)" class="st1 st3 st4">I</text>
			</g>
			<g>
				<g>
					<rect x="735.66" y="333.72" width="44.92" height="46.7"/>
				</g>
				<rect x="735.66" y="339.22" class="st2" width="44.92" height="35.71"/>
				<text transform="matrix(0.9618 0 0 1 742.0928 374.7578)" class="st1 st3 st4">D</text>
			</g>
			<g>
				<g>
					<rect x="784.39" y="333.72" width="44.92" height="46.7"/>
				</g>
				<rect x="784.39" y="339.22" class="st2" width="44.92" height="35.71"/>
				<text transform="matrix(0.9618 0 0 1 795.002 374.7578)" class="st1 st3 st4">E</text>
			</g>
		</g>
		<g>
			<path class="st1" d="M614.79,344.95c-0.29-0.56-0.63-1.15-1.04-1.75c-1.56-2.28-4.33-5.01-8.72-5.01c-3.12,0-5.96,1.33-8.02,3.75
				c-1.96,2.31-3.04,5.4-3.04,8.71c0,3.6,1.35,6.95,4.25,10.54c2.59,3.21,6.33,6.51,10.65,10.34c1.61,1.43,3.28,2.9,5.05,4.51
				l0.05,0.05c0.23,0.21,0.52,0.31,0.8,0.31 M614.79,373.47c-1.51-1.36-2.93-2.63-4.32-3.86c-8.46-7.49-14.04-12.44-14.04-18.95
				c0-2.69,0.86-5.19,2.43-7.03c1.58-1.87,3.78-2.9,6.19-2.9c3.34,0,5.5,2.14,6.73,3.94c1.1,1.61,1.67,3.23,1.87,3.86
				c0.16,0.52,0.63,0.87,1.16,0.87"/>
		</g>
		<g>
			<path d="M614.97,345.65c0.28-0.54,0.62-1.12,1.01-1.7c1.52-2.23,4.22-4.88,8.49-4.88c3.04,0,5.81,1.3,7.81,3.66
				c1.91,2.25,2.96,5.26,2.96,8.49c0,3.51-1.32,6.77-4.15,10.27c-2.53,3.13-6.16,6.35-10.37,10.08c-1.57,1.39-3.19,2.83-4.92,4.4
				l-0.05,0.05c-0.22,0.2-0.5,0.31-0.78,0.31 M614.97,373.44c1.47-1.33,2.86-2.56,4.21-3.76c8.24-7.3,13.69-12.12,13.69-18.46
				c0-2.62-0.84-5.05-2.36-6.85c-1.54-1.82-3.68-2.82-6.03-2.82c-3.26,0-5.36,2.09-6.56,3.84c-1.07,1.57-1.63,3.15-1.82,3.76
				c-0.16,0.51-0.62,0.85-1.13,0.85"/>
		</g>
	</g>
	<line class="st6" x1="882.29" y1="312.63" x2="882.29" y2="368.88"/>
	<line class="st6" x1="909.88" y1="344.69" x2="855.78" y2="344.69"/>
	<line class="st6" x1="909.34" y1="346.94" x2="909.34" y2="290.69"/>
	<line class="st6" x1="881.21" y1="314.88" x2="935.31" y2="314.88"/>
	<line class="st7" x1="348.79" y1="313.19" x2="294.69" y2="313.19"/>
	<line class="st7" x1="317.95" y1="341.88" x2="317.95" y2="285.63"/>
	<line class="st7" x1="316.33" y1="341.32" x2="370.44" y2="341.32"/>
	<line class="st7" x1="347.17" y1="312.07" x2="347.17" y2="368.32"/>
</g>
</svg>
